{"asset":{"version":"2.0","generator":"THREE.GLTFExporter r164"},"scenes":[{"nodes":[1,4,7]}],"scene":0,"nodes":[{"mesh":0},{"matrix":[1,0,0,0,0,2.220446049250313e-16,-1,0,0,1,2.220446049250313e-16,0,0,-99,0,1],"name":"background","children":[0]},{"matrix":[1,0,0,0,0,9.999999994736442e-7,-0.9999999999995002,0,0,0.9999999999995002,9.999999994736442e-7,0,0,0.9999999999995,9.999999999998333e-7,1],"camera":0},{},{"children":[2,3]},{"matrix":[1,0,0,0,0,1,0,0,0,0,1,0,0.057644787742187224,-0.11715304693751043,0.013726132695002037,1],"extras":{"id":"38135","decal":false},"mesh":1},{"matrix":[0.06602365815855447,0.01581747563389066,-0.0028103731515198437,0,0.0028801113939816423,0.00004033242641731276,0.06788900869044123,0,0.015804926163629027,-0.06608343216861408,-0.0006312456697514871,0,-0.003685446448944893,-1.1102230246251565e-16,0.008124072147274173,1],"children":[5]},{"matrix":[1,0,0,0,0,1,0,0,0,0,1,0,0.003685446448944893,1.1102230246251565e-16,-0.008124072147274173,1],"children":[6]}],"bufferViews":[{"buffer":0,"byteOffset":0,"byteLength":48,"target":34962,"byteStride":12},{"buffer":0,"byteOffset":48,"byteLength":48,"target":34962,"byteStride":12},{"buffer":0,"byteOffset":96,"byteLength":32,"target":34962,"byteStride":8},{"buffer":0,"byteOffset":128,"byteLength":12,"target":34963},{"buffer":0,"byteOffset":140,"byteLength":513072,"target":34962,"byteStride":12},{"buffer":0,"byteOffset":513212,"byteLength":342048,"target":34962,"byteStride":8},{"buffer":0,"byteOffset":855260,"byteLength":513072,"target":34962,"byteStride":12},{"buffer":0,"byteOffset":1368332,"byteLength":342048,"target":34962,"byteStride":8},{"buffer":0,"byteOffset":1710380,"byteLength":342048,"target":34962,"byteStride":8}],"buffers":[{"byteLength":2052428,"uri":"data:application/octet-stream;base64,"}],"accessors":[{"bufferView":0,"componentType":5126,"count":4,"max":[46.63076400756836,46.63076400756836,0],"min":[-46.63076400756836,-46.63076400756836,0],"type":"VEC3"},{"bufferView":1,"componentType":5126,"count":4,"max":[0,0,1],"min":[0,0,1],"type":"VEC3"},{"bufferView":2,"componentType":5126,"count":4,"max":[1,1],"min":[0,0],"type":"VEC2"},{"bufferView":3,"componentType":5123,"count":6,"max":[3],"min":[0],"type":"SCALAR"},{"bufferView":4,"componentType":5126,"count":42756,"max":[5.060301780700684,4.300304889678955,1.7400000095367432],"min":[-5.060301780700684,-4.300304889678955,-1.7400000095367432],"type":"VEC3"},{"bufferView":5,"componentType":5126,"count":42756,"max":[1,1],"min":[0,0],"type":"VEC2"},{"bufferView":6,"componentType":5126,"count":42756,"max":[0.9973896145820618,0.9998579621315002,1],"min":[-0.9998579025268555,-0.9998579025268555,-1],"type":"VEC3"},{"bufferView":7,"componentType":5126,"count":42756,"max":[0.999658465385437,0.9997081756591797],"min":[0.00034141336800530553,0.0002901371626649052],"type":"VEC2"},{"bufferView":8,"componentType":5126,"count":42756,"max":[0.999658465385437,0.9997081756591797],"min":[0.00034141336800530553,0.0002901371626649052],"type":"VEC2"}],"materials":[{"pbrMetallicRoughness":{"baseColorFactor":[0,0,0,1],"metallicFactor":0,"roughnessFactor":0.9},"extensions":{"KHR_materials_unlit":{}}},{"pbrMetallicRoughness":{"metallicFactor":0,"roughnessFactor":0.34,"baseColorTexture":{"index":0,"texCoord":0}},"extensions":{"KHR_materials_ior":{"ior":1.2}}}],"meshes":[{"primitives":[{"mode":4,"attributes":{"POSITION":0,"NORMAL":1,"TEXCOORD_0":2},"indices":3,"material":0}]},{"primitives":[{"mode":4,"attributes":{"POSITION":4,"TEXCOORD_0":5,"NORMAL":6,"TEXCOORD_1":7,"TEXCOORD_2":8},"material":1}]}],"cameras":[{"type":"perspective","perspective":{"aspectRatio":1,"yfov":0.8726646259971648,"zfar":2000,"znear":0.1}}],"textures":[{"sampler":0,"source":0}],"samplers":[{"magFilter":9729,"minFilter":9987,"wrapS":33071,"wrapT":33071}],"images":[{"mimeType":"image/png","uri":"data:image/png;base64,"}],"extensionsUsed":["KHR_materials_unlit","KHR_materials_ior"]}